<mxfile host="65bd71144e">
    <diagram id="4hMaYEXNN1COiRsCeM55" name="Page-1">
        <mxGraphModel dx="1852" dy="403" grid="1" gridSize="10" guides="1" tooltips="1" connect="1" arrows="1" fold="1" page="1" pageScale="1" pageWidth="827" pageHeight="1169" math="0" shadow="0">
            <root>
                <mxCell id="0"/>
                <mxCell id="1" parent="0"/>
                <mxCell id="3" value="Artifacts" style="text;html=1;strokeColor=none;fillColor=none;align=center;verticalAlign=middle;whiteSpace=wrap;rounded=0;fontSize=16;" parent="1" vertex="1">
                    <mxGeometry x="150" y="90" width="60" height="30" as="geometry"/>
                </mxCell>
                <mxCell id="4" value="Stages" style="text;html=1;strokeColor=none;fillColor=none;align=center;verticalAlign=middle;whiteSpace=wrap;rounded=0;fontSize=16;" parent="1" vertex="1">
                    <mxGeometry x="250" y="90" width="60" height="30" as="geometry"/>
                </mxCell>
                <mxCell id="7" value="GW_CLONE" style="text;html=1;strokeColor=none;fillColor=none;align=center;verticalAlign=middle;whiteSpace=wrap;rounded=0;" parent="1" vertex="1">
                    <mxGeometry x="10" y="205" width="80" height="20" as="geometry"/>
                </mxCell>
                <mxCell id="8" value="" style="endArrow=classic;html=1;exitX=1;exitY=0.5;exitDx=0;exitDy=0;entryX=0;entryY=0.5;entryDx=0;entryDy=0;entryPerimeter=0;" parent="1" source="7" target="2" edge="1">
                    <mxGeometry width="50" height="50" relative="1" as="geometry">
                        <mxPoint x="120" y="220" as="sourcePoint"/>
                        <mxPoint x="130" y="210" as="targetPoint"/>
                    </mxGeometry>
                </mxCell>
                <mxCell id="10" value="BACKUP_TEMPLATE" style="text;html=1;strokeColor=none;fillColor=none;align=center;verticalAlign=middle;whiteSpace=wrap;rounded=0;" parent="1" vertex="1">
                    <mxGeometry x="280" y="175" width="120" height="20" as="geometry"/>
                </mxCell>
                <mxCell id="11" value="copia al&lt;br&gt;entorno" style="endArrow=classic;html=1;exitX=1;exitY=0.5;exitDx=0;exitDy=0;exitPerimeter=0;" parent="1" source="2" target="10" edge="1">
                    <mxGeometry x="0.0588" width="50" height="50" relative="1" as="geometry">
                        <mxPoint x="220" y="210" as="sourcePoint"/>
                        <mxPoint x="270" y="200" as="targetPoint"/>
                        <mxPoint as="offset"/>
                    </mxGeometry>
                </mxCell>
                <mxCell id="13" value="clone" style="curved=1;endArrow=classic;html=1;entryX=0.25;entryY=1;entryDx=0;entryDy=0;exitX=1;exitY=0.5;exitDx=0;exitDy=0;dashed=1;" parent="1" source="7" target="10" edge="1">
                    <mxGeometry x="-0.6216" y="10" width="50" height="50" relative="1" as="geometry">
                        <mxPoint x="200" y="290" as="sourcePoint"/>
                        <mxPoint x="250" y="240" as="targetPoint"/>
                        <Array as="points">
                            <mxPoint x="130" y="240"/>
                            <mxPoint x="310" y="240"/>
                        </Array>
                        <mxPoint as="offset"/>
                    </mxGeometry>
                </mxCell>
                <mxCell id="14" value="push" style="curved=1;endArrow=classic;html=1;entryX=0.444;entryY=1.017;entryDx=0;entryDy=0;exitX=1;exitY=0.5;exitDx=0;exitDy=0;entryPerimeter=0;dashed=1;" parent="1" source="10" target="7" edge="1">
                    <mxGeometry x="0.7168" width="50" height="50" relative="1" as="geometry">
                        <mxPoint x="100" y="225" as="sourcePoint"/>
                        <mxPoint x="350" y="205" as="targetPoint"/>
                        <Array as="points">
                            <mxPoint x="450" y="190"/>
                            <mxPoint x="430" y="280"/>
                            <mxPoint x="130" y="280"/>
                            <mxPoint x="46" y="260"/>
                        </Array>
                        <mxPoint as="offset"/>
                    </mxGeometry>
                </mxCell>
                <mxCell id="17" value="" style="sketch=0;aspect=fixed;html=1;points=[];align=center;image;fontSize=12;image=img/lib/mscae/Application_Gateway.svg;" parent="1" vertex="1">
                    <mxGeometry x="572.59" y="160" width="40" height="40" as="geometry"/>
                </mxCell>
                <mxCell id="18" value="" style="aspect=fixed;html=1;points=[];align=center;image;fontSize=12;image=img/lib/azure2/devops/Azure_DevOps.svg;" parent="1" vertex="1">
                    <mxGeometry x="-21.5" y="40" width="64" height="64" as="geometry"/>
                </mxCell>
                <mxCell id="19" value="" style="shape=image;verticalLabelPosition=bottom;labelBackgroundColor=#ffffff;verticalAlign=top;aspect=fixed;imageAspect=0;image=data:image/svg+xml,PHN2ZyB4bWxucz0iaHR0cDovL3d3dy53My5vcmcvMjAwMC9zdmciIGhlaWdodD0iMTk5NSIgdmlld0JveD0iMCAwIDU5LjI0MiA0Ny4yNzEiIHdpZHRoPSIyNTAwIj48cGF0aCBkPSJtMzIuMzY4IDAtMTcuNDY4IDE1LjE0NS0xNC45IDI2Ljc1aDEzLjQzN3ptMi4zMjMgMy41NDMtNy40NTQgMjEuMDA4IDE0LjI5MSAxNy45NTYtMjcuNzI4IDQuNzY0aDQ1LjQ0MnoiIGZpbGw9IiMwMDcyYzYiLz48L3N2Zz4=;" parent="1" vertex="1">
                    <mxGeometry x="555" y="44" width="75.18" height="60" as="geometry"/>
                </mxCell>
                <mxCell id="20" value="" style="sketch=0;aspect=fixed;html=1;points=[];align=center;image;fontSize=12;image=img/lib/mscae/Azure_Repos.svg;" parent="1" vertex="1">
                    <mxGeometry x="-21.5" y="195" width="31.5" height="35" as="geometry"/>
                </mxCell>
                <mxCell id="21" value="" style="sketch=0;aspect=fixed;html=1;points=[];align=center;image;fontSize=12;image=img/lib/mscae/Azure_Pipelines.svg;" parent="1" vertex="1">
                    <mxGeometry x="100" y="88" width="34" height="34" as="geometry"/>
                </mxCell>
                <mxCell id="23" value="GetAzResource" style="curved=1;endArrow=classic;html=1;entryX=0.148;entryY=0.224;entryDx=0;entryDy=0;entryPerimeter=0;dashed=1;exitX=0.684;exitY=-0.113;exitDx=0;exitDy=0;exitPerimeter=0;" parent="1" target="17" edge="1" source="10">
                    <mxGeometry x="0.0417" width="50" height="50" relative="1" as="geometry">
                        <mxPoint x="370" y="171" as="sourcePoint"/>
                        <mxPoint x="539" y="49" as="targetPoint"/>
                        <Array as="points">
                            <mxPoint x="390" y="140"/>
                            <mxPoint x="550" y="140"/>
                        </Array>
                        <mxPoint as="offset"/>
                    </mxGeometry>
                </mxCell>
                <mxCell id="25" value="Original" style="text;html=1;strokeColor=none;fillColor=none;align=center;verticalAlign=middle;whiteSpace=wrap;rounded=0;fontSize=16;" parent="1" vertex="1">
                    <mxGeometry x="562.5899999999999" y="205" width="60" height="30" as="geometry"/>
                </mxCell>
                <mxCell id="27" value="CLONADO_GW" style="text;html=1;strokeColor=none;fillColor=none;align=center;verticalAlign=middle;whiteSpace=wrap;rounded=0;" parent="1" vertex="1">
                    <mxGeometry x="280" y="330" width="90" height="20" as="geometry"/>
                </mxCell>
                <mxCell id="28" value="copia al&lt;br&gt;entorno" style="curved=1;endArrow=classic;html=1;entryX=-0.018;entryY=0.411;entryDx=0;entryDy=0;exitX=1;exitY=0.5;exitDx=0;exitDy=0;exitPerimeter=0;entryPerimeter=0;" parent="1" source="2" target="27" edge="1">
                    <mxGeometry x="0.5941" y="8" width="50" height="50" relative="1" as="geometry">
                        <mxPoint x="100" y="225" as="sourcePoint"/>
                        <mxPoint x="350" y="205" as="targetPoint"/>
                        <Array as="points">
                            <mxPoint x="240" y="180"/>
                            <mxPoint x="230" y="338"/>
                        </Array>
                        <mxPoint as="offset"/>
                    </mxGeometry>
                </mxCell>
                <mxCell id="2" value="" style="verticalLabelPosition=bottom;html=1;verticalAlign=top;align=center;strokeColor=none;fillColor=#00BEF2;shape=mxgraph.azure.git_repository;" parent="1" vertex="1">
                    <mxGeometry x="165" y="170" width="30" height="30" as="geometry"/>
                </mxCell>
                <mxCell id="29" value="reemplazo de &lt;br&gt;nombres" style="curved=1;endArrow=classic;html=1;exitX=0.5;exitY=1;exitDx=0;exitDy=0;" parent="1" source="27" edge="1">
                    <mxGeometry x="-0.012" y="20" width="50" height="50" relative="1" as="geometry">
                        <mxPoint x="205" y="195" as="sourcePoint"/>
                        <mxPoint x="325" y="348" as="targetPoint"/>
                        <Array as="points">
                            <mxPoint x="350" y="380"/>
                            <mxPoint x="300" y="380"/>
                        </Array>
                        <mxPoint as="offset"/>
                    </mxGeometry>
                </mxCell>
                <mxCell id="30" value="" style="sketch=0;aspect=fixed;html=1;points=[];align=center;image;fontSize=12;image=img/lib/mscae/Application_Gateway.svg;" parent="1" vertex="1">
                    <mxGeometry x="572.59" y="320" width="40" height="40" as="geometry"/>
                </mxCell>
                <mxCell id="31" value="RÃ©plica" style="text;html=1;strokeColor=none;fillColor=none;align=center;verticalAlign=middle;whiteSpace=wrap;rounded=0;fontSize=16;" parent="1" vertex="1">
                    <mxGeometry x="562.5899999999999" y="365" width="60" height="30" as="geometry"/>
                </mxCell>
                <mxCell id="33" value="&lt;span style=&quot;font-size: 11px&quot;&gt;New-AzResourceGroupDeployment&lt;/span&gt;" style="curved=1;endArrow=classic;html=1;exitX=0.859;exitY=0.019;exitDx=0;exitDy=0;entryX=0.034;entryY=0.293;entryDx=0;entryDy=0;entryPerimeter=0;exitPerimeter=0;" parent="1" source="27" target="30" edge="1">
                    <mxGeometry x="-0.0091" y="10" width="50" height="50" relative="1" as="geometry">
                        <mxPoint x="414" y="320" as="sourcePoint"/>
                        <mxPoint x="500" y="318" as="targetPoint"/>
                        <Array as="points">
                            <mxPoint x="390" y="310"/>
                            <mxPoint x="540" y="310"/>
                        </Array>
                        <mxPoint as="offset"/>
                    </mxGeometry>
                </mxCell>
                <mxCell id="34" value="foreach&lt;br&gt;gw in csv" style="curved=1;endArrow=classic;html=1;entryX=0.5;entryY=0;entryDx=0;entryDy=0;exitX=0.837;exitY=-0.101;exitDx=0;exitDy=0;exitPerimeter=0;" edge="1" parent="1" source="10" target="10">
                    <mxGeometry x="-0.0243" width="50" height="50" relative="1" as="geometry">
                        <mxPoint x="380" y="170" as="sourcePoint"/>
                        <mxPoint x="335" y="348" as="targetPoint"/>
                        <Array as="points">
                            <mxPoint x="400" y="120"/>
                            <mxPoint x="320" y="120"/>
                        </Array>
                        <mxPoint as="offset"/>
                    </mxGeometry>
                </mxCell>
            </root>
        </mxGraphModel>
    </diagram>
</mxfile>